<svg width="41" height="40" viewBox="0 0 41 40" fill="none" xmlns="http://www.w3.org/2000/svg">
<path d="M9.25 36V4C9.25 2.20507 10.7051 0.75 12.5 0.75H29.6893L39.75 10.8107V36C39.75 37.7949 38.2949 39.25 36.5 39.25H12.5C10.7051 39.25 9.25 37.7949 9.25 36Z" fill="white" stroke="#D0D5DD" stroke-width="1.5"/>
<path fill-rule="evenodd" clip-rule="evenodd" d="M28.5 8C28.5 10.2091 30.2909 12 32.5 12H40.5V10.5H32.5C31.1193 10.5 30 9.38071 30 8V0H28.5V8Z" fill="#D0D5DD"/>
<rect x="0.5" y="16" width="32" height="16" rx="2" fill="#155EEF"/>
<path d="M5.15039 27.4999V20.4999H8.21039C8.97039 20.4999 9.63706 20.6466 10.2104 20.9399C10.7837 21.2332 11.2304 21.6399 11.5504 22.1599C11.8704 22.6799 12.0304 23.2932 12.0304 23.9999C12.0304 24.6999 11.8704 25.3132 11.5504 25.8399C11.2304 26.3599 10.7837 26.7666 10.2104 27.0599C9.63706 27.3532 8.97039 27.4999 8.21039 27.4999H5.15039ZM6.45039 26.3999H8.15039C8.67706 26.3999 9.13039 26.2999 9.51039 26.0999C9.89706 25.8999 10.1937 25.6199 10.4004 25.2599C10.6137 24.8999 10.7204 24.4799 10.7204 23.9999C10.7204 23.5132 10.6137 23.0932 10.4004 22.7399C10.1937 22.3799 9.89706 22.0999 9.51039 21.8999C9.13039 21.6999 8.67706 21.5999 8.15039 21.5999H6.45039V26.3999Z" fill="white"/>
<path d="M16.6921 27.5999C16.1454 27.5999 15.6421 27.5099 15.1821 27.3299C14.7221 27.1499 14.3221 26.8999 13.9821 26.5799C13.6421 26.2532 13.3788 25.8732 13.1921 25.4399C13.0054 24.9999 12.9121 24.5199 12.9121 23.9999C12.9121 23.4799 13.0054 23.0032 13.1921 22.5699C13.3788 22.1299 13.6421 21.7499 13.9821 21.4299C14.3221 21.1032 14.7221 20.8499 15.1821 20.6699C15.6421 20.4899 16.1421 20.3999 16.6821 20.3999C17.2288 20.3999 17.7288 20.4899 18.1821 20.6699C18.6421 20.8499 19.0421 21.1032 19.3821 21.4299C19.7221 21.7499 19.9854 22.1299 20.1721 22.5699C20.3588 23.0032 20.4521 23.4799 20.4521 23.9999C20.4521 24.5199 20.3588 24.9999 20.1721 25.4399C19.9854 25.8799 19.7221 26.2599 19.3821 26.5799C19.0421 26.8999 18.6421 27.1499 18.1821 27.3299C17.7288 27.5099 17.2321 27.5999 16.6921 27.5999ZM16.6821 26.4599C17.0354 26.4599 17.3621 26.3999 17.6621 26.2799C17.9621 26.1599 18.2221 25.9899 18.4421 25.7699C18.6621 25.5432 18.8321 25.2832 18.9521 24.9899C19.0788 24.6899 19.1421 24.3599 19.1421 23.9999C19.1421 23.6399 19.0788 23.3132 18.9521 23.0199C18.8321 22.7199 18.6621 22.4599 18.4421 22.2399C18.2221 22.0132 17.9621 21.8399 17.6621 21.7199C17.3621 21.5999 17.0354 21.5399 16.6821 21.5399C16.3288 21.5399 16.0021 21.5999 15.7021 21.7199C15.4088 21.8399 15.1488 22.0132 14.9221 22.2399C14.7021 22.4599 14.5288 22.7199 14.4021 23.0199C14.2821 23.3132 14.2221 23.6399 14.2221 23.9999C14.2221 24.3532 14.2821 24.6799 14.4021 24.9799C14.5288 25.2799 14.7021 25.5432 14.9221 25.7699C15.1421 25.9899 15.4021 26.1599 15.7021 26.2799C16.0021 26.3999 16.3288 26.4599 16.6821 26.4599Z" fill="white"/>
<path d="M25.0701 27.5999C24.5367 27.5999 24.0401 27.5132 23.5801 27.3399C23.1267 27.1599 22.7301 26.9099 22.3901 26.5899C22.0567 26.2632 21.7967 25.8799 21.6101 25.4399C21.4234 24.9999 21.3301 24.5199 21.3301 23.9999C21.3301 23.4799 21.4234 22.9999 21.6101 22.5599C21.7967 22.1199 22.0601 21.7399 22.4001 21.4199C22.7401 21.0932 23.1367 20.8432 23.5901 20.6699C24.0434 20.4899 24.5401 20.3999 25.0801 20.3999C25.6534 20.3999 26.1767 20.4999 26.6501 20.6999C27.1234 20.8932 27.5234 21.1832 27.8501 21.5699L27.0101 22.3599C26.7567 22.0866 26.4734 21.8832 26.1601 21.7499C25.8467 21.6099 25.5067 21.5399 25.1401 21.5399C24.7734 21.5399 24.4367 21.5999 24.1301 21.7199C23.8301 21.8399 23.5667 22.0099 23.3401 22.2299C23.1201 22.4499 22.9467 22.7099 22.8201 23.0099C22.7001 23.3099 22.6401 23.6399 22.6401 23.9999C22.6401 24.3599 22.7001 24.6899 22.8201 24.9899C22.9467 25.2899 23.1201 25.5499 23.3401 25.7699C23.5667 25.9899 23.8301 26.1599 24.1301 26.2799C24.4367 26.3999 24.7734 26.4599 25.1401 26.4599C25.5067 26.4599 25.8467 26.3932 26.1601 26.2599C26.4734 26.1199 26.7567 25.9099 27.0101 25.6299L27.8501 26.4299C27.5234 26.8099 27.1234 27.0999 26.6501 27.2999C26.1767 27.4999 25.6501 27.5999 25.0701 27.5999Z" fill="white"/>
</svg>
