<svg width="41" height="40" viewBox="0 0 41 40" fill="none" xmlns="http://www.w3.org/2000/svg">
<path d="M9.25 36V4C9.25 2.20507 10.7051 0.75 12.5 0.75H29.6893L39.75 10.8107V36C39.75 37.7949 38.2949 39.25 36.5 39.25H12.5C10.7051 39.25 9.25 37.7949 9.25 36Z" fill="white" stroke="#D0D5DD" stroke-width="1.5"/>
<path fill-rule="evenodd" clip-rule="evenodd" d="M28.5 8C28.5 10.2091 30.2909 12 32.5 12H40.5V10.5H32.5C31.1193 10.5 30 9.38071 30 8V0H28.5V8Z" fill="#D0D5DD"/>
<rect x="0.5" y="16" width="32" height="16" rx="2" fill="#D92D20"/>
<path d="M6.23486 27.5V20.5H9.11486C9.73486 20.5 10.2649 20.6 10.7049 20.8C11.1515 21 11.4949 21.2867 11.7349 21.66C11.9749 22.0333 12.0949 22.4767 12.0949 22.99C12.0949 23.5033 11.9749 23.9467 11.7349 24.32C11.4949 24.6933 11.1515 24.98 10.7049 25.18C10.2649 25.38 9.73486 25.48 9.11486 25.48H6.95486L7.53486 24.87V27.5H6.23486ZM7.53486 25.01L6.95486 24.38H9.05486C9.6282 24.38 10.0582 24.26 10.3449 24.02C10.6382 23.7733 10.7849 23.43 10.7849 22.99C10.7849 22.5433 10.6382 22.2 10.3449 21.96C10.0582 21.72 9.6282 21.6 9.05486 21.6H6.95486L7.53486 20.96V25.01Z" fill="white"/>
<path d="M13.3931 27.5V20.5H16.4531C17.2131 20.5 17.8797 20.6467 18.4531 20.94C19.0264 21.2333 19.4731 21.64 19.7931 22.16C20.1131 22.68 20.2731 23.2933 20.2731 24C20.2731 24.7 20.1131 25.3133 19.7931 25.84C19.4731 26.36 19.0264 26.7667 18.4531 27.06C17.8797 27.3533 17.2131 27.5 16.4531 27.5H13.3931ZM14.6931 26.4H16.3931C16.9197 26.4 17.3731 26.3 17.7531 26.1C18.1397 25.9 18.4364 25.62 18.6431 25.26C18.8564 24.9 18.9631 24.48 18.9631 24C18.9631 23.5133 18.8564 23.0933 18.6431 22.74C18.4364 22.38 18.1397 22.1 17.7531 21.9C17.3731 21.7 16.9197 21.6 16.3931 21.6H14.6931V26.4Z" fill="white"/>
<path d="M22.8448 23.72H26.3348V24.82H22.8448V23.72ZM22.9548 27.5H21.6548V20.5H26.7648V21.59H22.9548V27.5Z" fill="white"/>
</svg>
