<svg width="41" height="40" viewBox="0 0 41 40" fill="none" xmlns="http://www.w3.org/2000/svg">
<path d="M9.25 36V4C9.25 2.20507 10.7051 0.75 12.5 0.75H29.6893L39.75 10.8107V36C39.75 37.7949 38.2949 39.25 36.5 39.25H12.5C10.7051 39.25 9.25 37.7949 9.25 36Z" fill="white" stroke="#D0D5DD" stroke-width="1.5"/>
<path fill-rule="evenodd" clip-rule="evenodd" d="M28.5 8C28.5 10.2091 30.2909 12 32.5 12H40.5V10.5H32.5C31.1193 10.5 30 9.38071 30 8V0H28.5V8Z" fill="#D0D5DD"/>
<rect x="0.5" y="16" width="32" height="16" rx="2" fill="#F79009"/>
<path d="M6.92432 27.5V20.5H9.80432C10.4243 20.5 10.9543 20.6 11.3943 20.8C11.841 21 12.1843 21.2867 12.4243 21.66C12.6643 22.0333 12.7843 22.4767 12.7843 22.99C12.7843 23.5033 12.6643 23.9467 12.4243 24.32C12.1843 24.6933 11.841 24.98 11.3943 25.18C10.9543 25.38 10.4243 25.48 9.80432 25.48H7.64432L8.22432 24.87V27.5H6.92432ZM8.22432 25.01L7.64432 24.38H9.74432C10.3176 24.38 10.7476 24.26 11.0343 24.02C11.3277 23.7733 11.4743 23.43 11.4743 22.99C11.4743 22.5433 11.3277 22.2 11.0343 21.96C10.7476 21.72 10.3176 21.6 9.74432 21.6H7.64432L8.22432 20.96V25.01Z" fill="white"/>
<path d="M14.0825 27.5V20.5H16.9625C17.5825 20.5 18.1125 20.6 18.5525 20.8C18.9992 21 19.3425 21.2867 19.5825 21.66C19.8225 22.0333 19.9425 22.4767 19.9425 22.99C19.9425 23.5033 19.8225 23.9467 19.5825 24.32C19.3425 24.6933 18.9992 24.98 18.5525 25.18C18.1125 25.38 17.5825 25.48 16.9625 25.48H14.8025L15.3825 24.87V27.5H14.0825ZM15.3825 25.01L14.8025 24.38H16.9025C17.4759 24.38 17.9059 24.26 18.1925 24.02C18.4859 23.7733 18.6325 23.43 18.6325 22.99C18.6325 22.5433 18.4859 22.2 18.1925 21.96C17.9059 21.72 17.4759 21.6 16.9025 21.6H14.8025L15.3825 20.96V25.01Z" fill="white"/>
<path d="M22.4556 27.5V21.6H20.1356V20.5H26.0756V21.6H23.7556V27.5H22.4556Z" fill="white"/>
</svg>
