<svg width="41" height="40" viewBox="0 0 41 40" fill="none" xmlns="http://www.w3.org/2000/svg">
<path d="M9.25 36V4C9.25 2.20507 10.7051 0.75 12.5 0.75H29.6893L39.75 10.8107V36C39.75 37.7949 38.2949 39.25 36.5 39.25H12.5C10.7051 39.25 9.25 37.7949 9.25 36Z" fill="white" stroke="#D0D5DD" stroke-width="1.5"/>
<path fill-rule="evenodd" clip-rule="evenodd" d="M28.5 8C28.5 10.2091 30.2909 12 32.5 12H40.5V10.5H32.5C31.1193 10.5 30 9.38071 30 8V0H28.5V8Z" fill="#D0D5DD"/>
<rect x="0.5" y="16" width="32" height="16" rx="2" fill="#475467"/>
<path d="M9.67791 27.5V21.6H7.35791V20.5H13.2979V21.6H10.9779V27.5H9.67791Z" fill="white"/>
<path d="M13.1208 27.5L16.0708 23.44V24.42L13.2608 20.5H14.7308L16.8208 23.4L16.2208 23.41L18.2908 20.5H19.7008L16.9108 24.35V23.41L19.8808 27.5H18.3808L16.1808 24.42H16.7708L14.6008 27.5H13.1208Z" fill="white"/>
<path d="M22.0217 27.5V21.6H19.7017L19.7008 20.5H25.6417V21.6H23.3217V27.5H22.0217Z" fill="white"/>
</svg>
