<svg width="41" height="40" viewBox="0 0 41 40" fill="none" xmlns="http://www.w3.org/2000/svg">
<path d="M9.25 36V4C9.25 2.20507 10.7051 0.75 12.5 0.75H29.6893L39.75 10.8107V36C39.75 37.7949 38.2949 39.25 36.5 39.25H12.5C10.7051 39.25 9.25 37.7949 9.25 36Z" fill="white" stroke="#D0D5DD" stroke-width="1.5"/>
<path fill-rule="evenodd" clip-rule="evenodd" d="M28.5 8C28.5 10.2091 30.2909 12 32.5 12H40.5V10.5H32.5C31.1193 10.5 30 9.38071 30 8V0H28.5V8Z" fill="#D0D5DD"/>
<rect x="0.5" y="16" width="32" height="16" rx="2" fill="#079455"/>
<path d="M7.25684 27.4999L10.2068 23.4399V24.4199L7.39684 20.4999H8.86684L10.9568 23.3999L10.3568 23.4099L12.4268 20.4999H13.8368L11.0468 24.3499V23.4099L14.0168 27.4999H12.5168L10.3168 24.4199H10.9068L8.73684 27.4999H7.25684Z" fill="white"/>
<path d="M14.8061 27.4999V20.4999H16.1061V26.3999H19.7661V27.4999H14.8061Z" fill="white"/>
<path d="M22.9136 27.5999C22.3669 27.5999 21.8436 27.5232 21.3436 27.3699C20.8436 27.2099 20.4469 27.0066 20.1536 26.7599L20.6036 25.7499C20.8836 25.9699 21.2302 26.1532 21.6436 26.2999C22.0569 26.4466 22.4802 26.5199 22.9136 26.5199C23.2802 26.5199 23.5769 26.4799 23.8036 26.3999C24.0302 26.3199 24.1969 26.2132 24.3036 26.0799C24.4102 25.9399 24.4636 25.7832 24.4636 25.6099C24.4636 25.3966 24.3869 25.2266 24.2336 25.0999C24.0802 24.9666 23.8802 24.8632 23.6336 24.7899C23.3936 24.7099 23.1236 24.6366 22.8236 24.5699C22.5302 24.5032 22.2336 24.4266 21.9336 24.3399C21.6402 24.2466 21.3702 24.1299 21.1236 23.9899C20.8836 23.8432 20.6869 23.6499 20.5336 23.4099C20.3802 23.1699 20.3036 22.8632 20.3036 22.4899C20.3036 22.1099 20.4036 21.7632 20.6036 21.4499C20.8102 21.1299 21.1202 20.8766 21.5336 20.6899C21.9536 20.4966 22.4836 20.3999 23.1236 20.3999C23.5436 20.3999 23.9602 20.4532 24.3736 20.5599C24.7869 20.6666 25.1469 20.8199 25.4536 21.0199L25.0436 22.0299C24.7302 21.8432 24.4069 21.7066 24.0736 21.6199C23.7402 21.5266 23.4202 21.4799 23.1136 21.4799C22.7536 21.4799 22.4602 21.5232 22.2336 21.6099C22.0136 21.6966 21.8502 21.8099 21.7436 21.9499C21.6436 22.0899 21.5936 22.2499 21.5936 22.4299C21.5936 22.6432 21.6669 22.8166 21.8136 22.9499C21.9669 23.0766 22.1636 23.1766 22.4036 23.2499C22.6502 23.3232 22.9236 23.3966 23.2236 23.4699C23.5236 23.5366 23.8202 23.6132 24.1136 23.6999C24.4136 23.7866 24.6836 23.8999 24.9236 24.0399C25.1702 24.1799 25.3669 24.3699 25.5136 24.6099C25.6669 24.8499 25.7436 25.1532 25.7436 25.5199C25.7436 25.8932 25.6402 26.2399 25.4336 26.5599C25.2336 26.8732 24.9236 27.1266 24.5036 27.3199C24.0836 27.5066 23.5536 27.5999 22.9136 27.5999Z" fill="white"/>
</svg>
